<svg width="32" height="32" viewBox="0 0 32 32" fill="none" xmlns="http://www.w3.org/2000/svg">
<rect width="32" height="32" rx="5" fill="#FFCD00"/>
<path d="M22.9983 20.9999H23.0008V16.2315C23.0008 13.898 22.498 12.1029 19.7711 12.1029C18.4609 12.1029 17.5798 12.8214 17.2218 13.5045H17.1837V12.3212H14.5989V20.9999H17.2904V16.7012C17.2904 15.5688 17.5036 14.4744 18.9052 14.4744C20.2865 14.4744 20.3068 15.7668 20.3068 16.7723V20.9999H22.9983Z" fill="white"/>
<path d="M10.2126 12.3214H12.9092V21.0001H10.2126V12.3214Z" fill="white"/>
<path d="M11.5616 8C10.6983 8 10 8.69825 10 9.56155C10 10.4248 10.6983 11.1383 11.5616 11.1383C12.4248 11.1383 13.1231 10.4223 13.1231 9.56155C13.1206 8.69825 12.4223 8 11.5616 8Z" fill="white"/>
</svg>
